<?xml version="1.0" standalone="no"?>
<!DOCTYPE svg PUBLIC "-//W3C//DTD SVG 20010904//EN"
 "http://www.w3.org/TR/2001/REC-SVG-20010904/DTD/svg10.dtd">
<svg version="1.0" xmlns="http://www.w3.org/2000/svg"
 width="1600.000000pt" height="1600.000000pt" viewBox="0 0 1600.000000 1600.000000"
 preserveAspectRatio="xMidYMid meet">
<metadata>
Created by potrace 1.11, written by Peter Selinger 2001-2013
</metadata>
<g transform="translate(0.000000,1600.000000) scale(0.100000,-0.100000)"
fill="#000000" stroke="none">
<path d="M0 8000 l0 -8000 8000 0 8000 0 0 8000 0 8000 -8000 0 -8000 0 0
-8000z m5267 3765 c244 -27 508 -84 683 -145 457 -161 816 -391 1152 -738 144
-149 242 -274 350 -447 68 -110 218 -399 218 -421 0 -5 -87 -63 -192 -128
-106 -66 -286 -177 -400 -248 -113 -70 -210 -128 -215 -128 -4 0 -38 59 -73
132 -182 370 -405 623 -745 848 -361 238 -766 350 -1263 350 -555 0 -968 -135
-1402 -459 -147 -109 -370 -332 -483 -483 -175 -232 -314 -490 -409 -753 -90
-247 -153 -525 -183 -795 -27 -244 -12 -682 30 -884 54 -262 107 -437 201
-664 31 -75 60 -141 64 -147 4 -5 33 -59 66 -120 252 -477 616 -858 1054
-1102 286 -160 473 -222 830 -275 108 -16 460 -15 560 1 300 49 401 76 620
163 267 107 547 295 771 518 168 167 270 312 389 548 65 130 73 142 93 136 12
-3 27 -10 32 -14 6 -4 100 -53 210 -110 110 -56 236 -122 280 -145 44 -23 131
-68 193 -100 61 -33 112 -64 112 -71 0 -32 -138 -315 -212 -434 -324 -524
-916 -981 -1588 -1227 -112 -41 -269 -89 -395 -119 -142 -34 -298 -62 -480
-86 -137 -18 -642 -18 -750 1 -44 7 -120 19 -170 27 -745 120 -1514 599 -2057
1280 -530 666 -853 1535 -883 2374 -8 203 7 486 34 685 23 167 85 456 125 583
14 45 37 119 51 164 67 220 236 581 374 803 295 471 671 849 1136 1140 313
197 631 333 965 413 220 53 370 76 605 96 102 8 574 -4 702 -19z m6953 -5
c282 -35 428 -68 675 -152 293 -100 582 -261 855 -477 52 -41 158 -138 236
-217 222 -223 369 -430 521 -734 66 -130 81 -166 71 -176 -13 -12 -733 -460
-775 -482 -12 -7 -24 -12 -27 -12 -3 0 -38 63 -76 141 -117 232 -222 384 -373
538 -140 143 -321 283 -467 363 -36 19 -85 46 -110 60 -25 14 -67 33 -95 43
-27 10 -54 22 -60 25 -19 13 -160 60 -255 84 -217 55 -392 76 -637 76 -467 0
-820 -90 -1168 -299 -379 -227 -660 -510 -900 -906 -182 -300 -331 -717 -389
-1090 -110 -706 -6 -1356 315 -1974 262 -503 633 -894 1086 -1145 361 -200
680 -281 1108 -279 169 0 224 5 355 27 431 74 718 197 1070 459 110 82 299
262 375 358 86 107 186 266 255 407 36 72 69 132 74 132 5 0 72 -33 150 -74
77 -40 200 -104 271 -141 320 -166 420 -218 423 -220 5 -4 -37 -104 -97 -228
-68 -143 -174 -314 -268 -436 -86 -110 -330 -354 -453 -453 -364 -290 -770
-500 -1225 -631 -216 -63 -327 -85 -630 -129 -140 -20 -650 -17 -790 5 -174
28 -315 56 -405 82 -30 9 -68 20 -85 25 -137 39 -293 103 -465 189 -718 359
-1299 948 -1679 1701 -192 380 -318 763 -390 1185 -40 233 -46 314 -46 650 1
258 4 357 18 455 27 193 35 239 52 315 8 39 20 92 25 119 14 71 27 117 66 246
62 200 91 284 144 410 340 814 931 1452 1710 1845 376 190 798 302 1275 339
130 10 577 -5 735 -24z"/>
</g>
</svg>
